# xmcd
#
# Track frame offsets:
#	150
#	15573
#	30718
#	47036
#	69238
#	85918
#	104059
#	122022
#	140851
#	169980
#	190991
#
# Disc length: 2786 seconds
# Revision: 0
# Processed by: cddbd v1.5.2PL0 Copyright (c) Steve Scherf et al.
# Submitted via: dBpowerAMP V12.0
#
DISCID=9b0ae00b
DTITLE=Little River Band - Cuts Like A Diamond
DYEAR=2013
DGENRE=Country
TTITLE0=The Lost And The Lonely
TTITLE1=Forever You Forever Me
TTITLE2=Cuts Like A Diamond
TTITLE3=You Dream I'll Drive
TTITLE4=I'm An Island
TTITLE5=Way Too Good
TTITLE6=What If You're Wrong
TTITLE7=Where Do I Run
TTITLE8=Someone
TTITLE9=Who Speaks For Me
TTITLE10=Love Is
EXTD=
EXTT0=
EXTT1=
EXTT2=
EXTT3=
EXTT4=
EXTT5=
EXTT6=
EXTT7=
EXTT8=
EXTT9=
EXTT10=
PLAYORDER=
